<svg width="1061" height="192" viewBox="0 0 1061 192" fill="none" xmlns="http://www.w3.org/2000/svg">
<g clip-path="url(#clip0_238_16)">
<path d="M901.075 0L895.903 2.00872L1024.8 63.9442L823.499 165.887H245.856L40.5782 62.1029L165.495 2.00872L160.324 0L0.795654 76.6661L222.782 191.833H839.014L1061 76.6661L901.075 0ZM241.878 168.063L243.071 168.565H827.079L1029.57 65.9529L1038.32 70.1377L829.864 178.943H235.91L25.4608 69.3008L35.8043 64.279L241.878 168.063ZM835.433 188.987H225.965L9.94564 76.8335L21.0848 71.4769L231.534 181.454L232.728 181.956H833.046L1042.7 72.4813L1051.85 76.8335L835.433 188.987Z" fill="#F8B642"/>
</g>
<defs>
<clipPath id="clip0_238_16">
<rect width="1061" height="192" fill="white"/>
</clipPath>
</defs>
</svg>
